<?xml version="1.0" encoding="utf-8"?>
<!-- Generator: Adobe Illustrator 16.0.0, SVG Export Plug-In . SVG Version: 6.00 Build 0)  -->
<!DOCTYPE svg PUBLIC "-//W3C//DTD SVG 1.1//EN" "http://www.w3.org/Graphics/SVG/1.1/DTD/svg11.dtd">
<svg version="1.1" id="Layer_1" xmlns="http://www.w3.org/2000/svg" xmlns:xlink="http://www.w3.org/1999/xlink" x="0px" y="0px"
	 width="1792px" height="1792px" viewBox="0 0 1792 1792" enable-background="new 0 0 1792 1792" xml:space="preserve">
<path fill="#8B8B8B" d="M1312,896c0,24.667-10.667,43-32,55l-544,320c-10,6-20.667,9-32,9c-10.667,0-21.334-2.667-32-8
	c-21.334-12.667-32-31.333-32-56V576c0-24.667,10.666-43.333,32-56c22-12,43.333-11.667,64,1l544,320
	C1301.333,853,1312,871.333,1312,896z M1440,896c0-98.667-24.334-189.667-73-273c-48.667-83.333-114.667-149.333-198-198
	c-83.334-48.667-174.334-73-273-73c-98.667,0-189.667,24.333-273,73c-83.334,48.667-149.334,114.667-198,198
	c-48.667,83.333-73,174.333-73,273s24.333,189.667,73,273c48.666,83.333,114.666,149.333,198,198c83.333,48.667,174.333,73,273,73
	c98.666,0,189.666-24.333,273-73c83.333-48.667,149.333-114.667,198-198C1415.666,1085.667,1440,994.667,1440,896z M1664,896
	c0,139.333-34.334,267.833-103,385.5c-68.667,117.667-161.834,210.833-279.5,279.5c-117.667,68.667-246.167,103-385.5,103
	c-139.334,0-267.834-34.333-385.5-103c-117.667-68.667-210.834-161.833-279.5-279.5c-68.667-117.667-103-246.167-103-385.5
	s34.333-267.833,103-385.5C299.666,392.833,392.833,299.667,510.5,231C628.166,162.333,756.666,128,896,128
	c139.333,0,267.833,34.333,385.5,103c117.666,68.667,210.833,161.833,279.5,279.5C1629.666,628.167,1664,756.667,1664,896z"/>
</svg>
